<?xml version="1.0" encoding="utf-8"?>
<!-- Generator: Adobe Illustrator 21.0.2, SVG Export Plug-In . SVG Version: 6.00 Build 0)  -->
<svg version="1.1" id="Layer_1" xmlns="http://www.w3.org/2000/svg" xmlns:xlink="http://www.w3.org/1999/xlink" x="0px" y="0px"
	 viewBox="0 0 100 100" style="enable-background:new 0 0 100 100;" xml:space="preserve">
<path d="M50,5C25.1,5,5,25.1,5,50c0,24.9,20.1,45,45,45s45-20.1,45-45C95,25.1,74.9,5,50,5z M50,89c-21.5,0-39-17.5-39-39
	s17.5-39,39-39s39,17.5,39,39S71.5,89,50,89z M52,66v4c0,1.1-0.9,2-2,2s-2-0.9-2-2v-4c0-1.1,0.9-2,2-2S52,64.9,52,66z M61,38.7
	c0.1,4.5-2.5,8.6-6.6,10.4c-1.4,0.6-2.4,2.1-2.4,3.8V56c0,1.1-0.9,2-2,2s-2-0.9-2-2v-3.1c0-3.3,1.9-6.2,4.8-7.5
	c2.6-1.1,4.3-3.7,4.2-6.6c-0.1-3.6-3.2-6.7-6.8-6.8c-1.9,0-3.7,0.6-5.1,2c-1.4,1.3-2.1,3.1-2.1,5c0,1.1-0.9,2-2,2s-2-0.9-2-2
	c0-3,1.2-5.8,3.3-7.9c2.1-2.1,5-3.2,8-3.1C56,28.2,60.8,33,61,38.7z"/>
</svg>
